<?xml version="1.0" encoding="utf-8"?>
<svg viewBox="25250 6046.589 8500 8506.822" width="2048" height="2048" style="max-height:423.16px; cursor:move;" xmlns="http://www.w3.org/2000/svg">
  <g style="" transform="matrix(1.647861, 0, 0, 1.647861, -18747.464774, -6130.683083)">
    <g fill="rgb(10,115,184)" transform="matrix(0.52062, -0.000175, 0.000175, 0.52062, 19819.695239, -1038.368404)" style="transform-origin: 8610.76px 11847.8px;">
      <path d="M10035 15156 c-213 -32 -375 -84 -576 -187 -415 -214 -730 -636 -828 -1109 -34 -165 -40 -340 -41 -1182 l0 -788 -22 -5 c-13 -3 -428 -6 -923 -8 l-900 -4 -121 -26 c-127 -27 -176 -41 -284 -84 -441 -174 -790 -542 -940 -990 -72 -215 -84 -290 -84 -528 -1 -136 4 -231 12 -270 35 -162 46 -206 74 -285 122 -342 353 -633 662 -835 238 -154 484 -234 787 -255 74 -5 497 -9 942 -10 l807 0 0 -30 c0 -27 3 -30 29 -30 16 0 36 7 45 15 8 8 24 15 35 15 17 0 21 6 21 35 l0 35 -49 0 c-44 0 -49 2 -55 26 -11 41 -6 1441 5 1634 17 297 48 429 145 623 20 39 40 74 45 75 5 2 9 10 9 17 0 8 31 60 69 117 252 376 669 637 1121 699 57 8 378 14 960 18 718 5 880 9 905 20 22 10 26 15 14 18 -10 2 -19 12 -21 21 -2 9 -3 361 -1 782 4 816 -3 1035 -38 1198 -104 485 -393 865 -833 1098 -145 76 -287 126 -471 165 -33 7 -67 14 -75 16 -49 12 -345 11 -425 -1z"/>
    </g>
    <g fill="rgb(8,147,181)" transform="matrix(0.52062, -0.000175, 0.000175, 0.52062, 18252.783135, 517.061644)" style="transform-origin: 11878.2px 8601.89px;">
      <path d="M11863 11893 c-10 -4 -13 -179 -13 -830 0 -785 -5 -985 -31 -1133 -36 -208 -165 -481 -325 -686 -67 -87 -205 -221 -267 -261 -21 -13 -40 -30 -44 -38 -3 -8 -12 -15 -19 -15 -8 0 -20 -5 -27 -11 -24 -21 -124 -78 -212 -122 -116 -57 -234 -100 -365 -132 -144 -36 -415 -45 -1267 -43 -621 1 -662 0 -679 -17 -17 -17 -16 -17 27 -11 24 3 37 3 29 -1 -8 -3 -21 -12 -28 -20 -7 -7 -19 -13 -26 -13 -10 0 -14 -68 -19 -302 -10 -459 -8 -1323 3 -1439 22 -219 74 -417 148 -565 39 -78 138 -244 151 -254 3 -3 26 -32 51 -64 72 -96 129 -155 222 -232 317 -264 667 -393 1067 -394 282 0 548 72 811 221 146 83 227 145 355 273 211 211 354 461 415 726 51 220 59 413 60 1347 l0 712 913 4 c773 4 923 7 987 20 130 26 202 47 300 84 94 35 234 102 216 103 -20 0 30 29 51 30 13 0 22 5 20 12 -1 7 15 18 36 25 21 7 45 20 53 28 9 8 20 15 25 15 6 0 7 5 4 10 -3 6 3 10 15 10 12 0 19 4 16 9 -3 5 6 12 21 16 36 9 254 230 325 330 70 99 157 264 197 372 82 224 123 518 101 733 -43 421 -228 794 -526 1061 -89 80 -104 92 -185 146 -207 139 -408 218 -674 263 -114 19 -163 20 -1007 20 -487 0 -888 4 -890 9 -1 4 -9 6 -15 4z"/>
    </g>
    <g fill="rgb(1,66,126)" transform="matrix(0.52062, -0.000175, 0.000175, 0.52062, 19047.140554, -270.484221)" style="transform-origin: 10221.7px 10245.3px;">
      <path d="M11850 11887 c-18 -9 -221 -12 -755 -14 -771 -2 -1025 -8 -1145 -27 -157 -26 -297 -72 -450 -147 -187 -92 -329 -197 -475 -351 -83 -89 -238 -304 -229 -319 2 -4 0 -9 -5 -11 -5 -1 -25 -36 -45 -75 -144 -289 -158 -433 -154 -1586 l3 -748 -30 -8 c-42 -11 1367 -13 1670 -2 273 10 360 25 545 93 125 45 336 153 386 196 5 5 37 28 70 50 250 171 464 476 579 827 58 178 62 266 64 1263 1 479 0 872 -1 871 -2 0 -14 -6 -28 -12z"/>
    </g>
  </g>
</svg>